<svg width="12" height="12" viewBox="0 0 12 12" fill="none" xmlns="http://www.w3.org/2000/svg">
<path d="M9.79063 6.34884C9.88297 6.0886 9.74686 5.80277 9.48662 5.71042C9.22638 5.61808 8.94055 5.75419 8.8482 6.01443L9.79063 6.34884ZM8.30269 9.04696L8.7739 9.21416L8.7739 9.21416L8.30269 9.04696ZM7.61697 9.64067L7.71503 10.131L7.71503 10.131L7.61697 9.64067ZM1.63135 10.8378L1.13928 10.7491C1.10991 10.9119 1.16304 11.0788 1.28117 11.1947C1.3993 11.3106 1.56712 11.3605 1.72941 11.3281L1.63135 10.8378ZM2.72366 4.78042L3.21572 4.86916L3.21572 4.86916L2.72366 4.78042ZM3.35383 4.0665L3.50296 4.54374L3.50296 4.54374L3.35383 4.0665ZM6.43664 3.62696C6.70021 3.5446 6.84711 3.26416 6.76474 3.00059C6.68237 2.73701 6.40194 2.59012 6.13836 2.67248L6.43664 3.62696ZM1.38608 10.376C1.19081 10.5712 1.19081 10.8878 1.38608 11.0831C1.58134 11.2783 1.89792 11.2783 2.09318 11.0831L1.38608 10.376ZM4.69197 8.48428C4.88723 8.28902 4.88723 7.97243 4.69197 7.77717C4.4967 7.58191 4.18012 7.58191 3.98486 7.77717L4.69197 8.48428ZM11.0519 4.01598L11.4055 3.66243L11.4055 3.66243L11.0519 4.01598ZM11.0519 4.88225L10.6984 4.52869L10.6984 4.52869L11.0519 4.88225ZM7.58689 1.4172L7.23334 1.06365L7.23334 1.06365L7.58689 1.4172ZM8.45315 1.4172L8.0996 1.77075L8.0996 1.77075L8.45315 1.4172ZM6.50407 3.36629L6.85762 3.01274L6.85762 3.01274L6.50407 3.36629ZM6.50407 2.50003L6.85762 2.85358L6.85762 2.85358L6.50407 2.50003ZM9.10285 5.96507L8.7493 6.31863L8.7493 6.31863L9.10285 5.96507ZM9.96911 5.96507L10.3227 6.31863L10.3227 6.31863L9.96911 5.96507ZM8.8482 6.01443L7.83147 8.87975L8.7739 9.21416L9.79063 6.34884L8.8482 6.01443ZM7.51891 9.15038L1.53329 10.3475L1.72941 11.3281L7.71503 10.131L7.51891 9.15038ZM2.12341 10.9265L3.21572 4.86916L2.2316 4.69169L1.13928 10.7491L2.12341 10.9265ZM3.50296 4.54374L6.43664 3.62696L6.13836 2.67248L3.20469 3.58926L3.50296 4.54374ZM3.21572 4.86916C3.2434 4.71566 3.35409 4.59026 3.50296 4.54374L3.20469 3.58926C2.70034 3.74686 2.32537 4.17168 2.2316 4.69169L3.21572 4.86916ZM7.83147 8.87975C7.78218 9.01868 7.66347 9.12146 7.51891 9.15038L7.71503 10.131C8.20474 10.033 8.60689 9.68482 8.7739 9.21416L7.83147 8.87975ZM2.09318 11.0831L4.69197 8.48428L3.98486 7.77717L1.38608 10.376L2.09318 11.0831ZM9.4564 5.61152L6.85762 3.01274L6.15051 3.71984L8.7493 6.31863L9.4564 5.61152ZM6.85762 2.85358L7.94045 1.77075L7.23334 1.06365L6.15051 2.14647L6.85762 2.85358ZM8.0996 1.77075L10.6984 4.36954L11.4055 3.66243L8.80671 1.06365L8.0996 1.77075ZM10.6984 4.52869L9.61556 5.61152L10.3227 6.31863L11.4055 5.2358L10.6984 4.52869ZM10.6984 4.36954C10.7423 4.41349 10.7423 4.48474 10.6984 4.52869L11.4055 5.2358C11.84 4.80133 11.84 4.0969 11.4055 3.66243L10.6984 4.36954ZM7.94044 1.77075C7.98439 1.72681 8.05565 1.72681 8.0996 1.77075L8.80671 1.06365C8.37223 0.629174 7.66781 0.629175 7.23334 1.06365L7.94044 1.77075ZM6.85762 3.01274C6.81367 2.96879 6.81367 2.89753 6.85762 2.85358L6.15051 2.14647C5.71604 2.58095 5.71604 3.28537 6.15051 3.71984L6.85762 3.01274ZM8.7493 6.31863C9.18377 6.7531 9.88819 6.7531 10.3227 6.31863L9.61556 5.61152C9.57161 5.65547 9.50035 5.65547 9.4564 5.61152L8.7493 6.31863ZM4.90853 6.53519C5.19169 6.25203 5.65079 6.25203 5.93395 6.53519L6.64105 5.82808C5.96737 5.1544 4.87511 5.1544 4.20143 5.82808L4.90853 6.53519ZM5.93395 6.53519C6.21711 6.81835 6.21711 7.27745 5.93395 7.56061L6.64105 8.26771C7.31474 7.59403 7.31474 6.50177 6.64105 5.82808L5.93395 6.53519ZM5.93395 7.56061C5.65079 7.84377 5.19169 7.84377 4.90853 7.56061L4.20143 8.26771C4.87511 8.9414 5.96737 8.9414 6.64105 8.26771L5.93395 7.56061ZM4.90853 7.56061C4.62537 7.27745 4.62537 6.81835 4.90853 6.53519L4.20143 5.82808C3.52774 6.50177 3.52774 7.59403 4.20143 8.26771L4.90853 7.56061Z" fill="black"/>
</svg>
