<svg width="24" height="24" viewBox="0 0 24 24" fill="none" xmlns="http://www.w3.org/2000/svg">
<path d="M19.487 12.6642C19.6532 12.1958 19.4082 11.6813 18.9398 11.5151C18.4714 11.3489 17.9569 11.5939 17.7906 12.0623L19.487 12.6642ZM16.6054 18.0939L17.4536 18.3949L17.4536 18.3949L16.6054 18.0939ZM15.2339 19.2813L15.4104 20.1639L15.4104 20.1639L15.2339 19.2813ZM3.2627 21.6756L2.37698 21.5159C2.32412 21.809 2.41974 22.1094 2.63237 22.318C2.845 22.5266 3.14709 22.6165 3.4392 22.5581L3.2627 21.6756ZM5.44732 9.56085L6.33303 9.72057L6.33303 9.72057L5.44732 9.56085ZM6.70765 8.13299L6.9761 8.99203L6.9761 8.99203L6.70765 8.13299ZM12.8434 7.15848C13.3179 7.01022 13.5823 6.50543 13.434 6.031C13.2858 5.55657 12.781 5.29216 12.3066 5.44042L12.8434 7.15848ZM2.84286 20.8226C2.49139 21.1741 2.49139 21.7439 2.84286 22.0954C3.19434 22.4469 3.76418 22.4469 4.11566 22.0954L2.84286 20.8226ZM9.31322 16.8978C9.6647 16.5464 9.6647 15.9765 9.31322 15.6251C8.96175 15.2736 8.3919 15.2736 8.04043 15.6251L9.31322 16.8978ZM22.1039 8.03197L22.7403 7.39557L22.7403 7.39557L22.1039 8.03197ZM22.1039 9.76449L21.4675 9.12809L21.4675 9.12809L22.1039 9.76449ZM15.1738 2.8344L14.5374 2.19801L14.5374 2.19801L15.1738 2.8344ZM16.9063 2.8344L16.2699 3.4708L16.2699 3.4708L16.9063 2.8344ZM13.0081 6.73258L13.6445 6.09618L13.6445 6.09618L13.0081 6.73258ZM13.0081 5.00006L13.6445 5.63645L13.6445 5.63645L13.0081 5.00006ZM18.2057 11.9301L17.5693 12.5665L17.5693 12.5665L18.2057 11.9301ZM19.9382 11.9301L20.5746 12.5665L20.5746 12.5665L19.9382 11.9301ZM17.7906 12.0623L15.7572 17.7929L17.4536 18.3949L19.487 12.6642L17.7906 12.0623ZM15.0574 18.3988L3.08619 20.7931L3.4392 22.5581L15.4104 20.1639L15.0574 18.3988ZM4.14841 21.8353L6.33303 9.72057L4.5616 9.40113L2.37698 21.5159L4.14841 21.8353ZM6.9761 8.99203L12.8434 7.15848L12.3066 5.44042L6.4392 7.27396L6.9761 8.99203ZM6.33303 9.72057C6.395 9.37692 6.6428 9.09618 6.9761 8.99203L6.4392 7.27396C5.46606 7.57807 4.74254 8.39776 4.5616 9.40113L6.33303 9.72057ZM15.7572 17.7929C15.6468 18.104 15.3811 18.3341 15.0574 18.3988L15.4104 20.1639C16.3554 19.9749 17.1313 19.303 17.4536 18.3949L15.7572 17.7929ZM4.11566 22.0954L9.31322 16.8978L8.04043 15.6251L2.84286 20.8226L4.11566 22.0954ZM18.8421 11.2937L13.6445 6.09618L12.3717 7.36897L17.5693 12.5665L18.8421 11.2937ZM13.6445 5.63645L15.8102 3.4708L14.5374 2.19801L12.3717 4.36366L13.6445 5.63645ZM16.2699 3.4708L21.4675 8.66837L22.7403 7.39557L17.5427 2.19801L16.2699 3.4708ZM21.4675 9.12809L19.3018 11.2937L20.5746 12.5665L22.7403 10.4009L21.4675 9.12809ZM21.4675 8.66837C21.5944 8.79532 21.5944 9.00114 21.4675 9.12809L22.7403 10.4009C23.5702 9.57099 23.5702 8.22547 22.7403 7.39557L21.4675 8.66837ZM15.8102 3.4708C15.9371 3.34385 16.143 3.34385 16.2699 3.4708L17.5427 2.19801C16.7128 1.36811 15.3673 1.36811 14.5374 2.19801L15.8102 3.4708ZM13.6445 6.09618C13.5176 5.96923 13.5176 5.7634 13.6445 5.63645L12.3717 4.36366C11.5418 5.19355 11.5418 6.53908 12.3717 7.36897L13.6445 6.09618ZM17.5693 12.5665C18.3992 13.3964 19.7447 13.3964 20.5746 12.5665L19.3018 11.2937C19.1749 11.4207 18.969 11.4207 18.8421 11.2937L17.5693 12.5665ZM9.74635 12.9997C10.3517 12.3943 11.3332 12.3943 11.9386 12.9997L13.2114 11.7269C11.9031 10.4186 9.78188 10.4186 8.47356 11.7269L9.74635 12.9997ZM11.9386 12.9997C12.544 13.605 12.544 14.5865 11.9386 15.1919L13.2114 16.4647C14.5197 15.1564 14.5197 13.0352 13.2114 11.7269L11.9386 12.9997ZM11.9386 15.1919C11.3332 15.7973 10.3517 15.7973 9.74635 15.1919L8.47356 16.4647C9.78188 17.773 11.9031 17.773 13.2114 16.4647L11.9386 15.1919ZM9.74635 15.1919C9.14098 14.5865 9.14098 13.605 9.74635 12.9997L8.47356 11.7269C7.16524 13.0352 7.16524 15.1564 8.47356 16.4647L9.74635 15.1919Z" fill="black"/>
</svg>
