<svg width="20" height="20" viewBox="0 0 20 20" fill="none" xmlns="http://www.w3.org/2000/svg">
<path d="M16.239 10.5535C16.3775 10.1632 16.1734 9.73442 15.783 9.59591C15.3926 9.45739 14.9639 9.66155 14.8254 10.0519L16.239 10.5535ZM13.8376 15.0783L14.5445 15.3291L14.5445 15.3291L13.8376 15.0783ZM12.6948 16.0678L12.8419 16.8032L12.8419 16.8032L12.6948 16.0678ZM2.71875 18.063L1.98065 17.9299C1.9366 18.1742 2.01628 18.4245 2.19348 18.5983C2.37067 18.7722 2.62241 18.8471 2.86584 18.7984L2.71875 18.063ZM4.53927 7.96738L5.27736 8.10047L5.27736 8.10047L4.53927 7.96738ZM5.58955 6.7775L5.81325 7.49336L5.81325 7.49336L5.58955 6.7775ZM10.7027 5.9654C11.0981 5.84185 11.3184 5.42119 11.1949 5.02583C11.0713 4.63047 10.6507 4.41013 10.2553 4.53368L10.7027 5.9654ZM2.36889 17.3522C2.076 17.6451 2.076 18.12 2.36889 18.4128C2.66178 18.7057 3.13666 18.7057 3.42955 18.4128L2.36889 17.3522ZM7.76086 14.0815C8.05375 13.7886 8.05375 13.3138 7.76086 13.0209C7.46796 12.728 6.99309 12.728 6.7002 13.0209L7.76086 14.0815ZM18.4197 6.69331L18.9501 6.16298L18.9501 6.16298L18.4197 6.69331ZM18.4197 8.13708L17.8894 7.60675L17.8894 7.60675L18.4197 8.13708ZM12.6447 2.362L12.1143 1.83167L12.1143 1.83167L12.6447 2.362ZM14.0884 2.362L13.5581 2.89233L13.5581 2.89233L14.0884 2.362ZM10.8399 5.61048L11.3703 5.08015L11.3703 5.08015L10.8399 5.61048ZM10.8399 4.16671L11.3703 4.69704L11.3703 4.69704L10.8399 4.16671ZM15.1713 9.94179L14.6409 10.4721L14.6409 10.4721L15.1713 9.94179ZM16.615 9.94179L17.1454 10.4721L17.1454 10.4721L16.615 9.94179ZM14.8254 10.0519L13.1308 14.8275L14.5445 15.3291L16.239 10.5535L14.8254 10.0519ZM12.5477 15.3323L2.57166 17.3276L2.86584 18.7984L12.8419 16.8032L12.5477 15.3323ZM3.45685 18.1961L5.27736 8.10047L3.80117 7.83428L1.98065 17.9299L3.45685 18.1961ZM5.81325 7.49336L10.7027 5.9654L10.2553 4.53368L5.36584 6.06164L5.81325 7.49336ZM5.27736 8.10047C5.32901 7.8141 5.53551 7.58015 5.81325 7.49336L5.36584 6.06164C4.55489 6.31506 3.95195 6.99814 3.80117 7.83428L5.27736 8.10047ZM13.1308 14.8275C13.0389 15.0867 12.8174 15.2784 12.5477 15.3323L12.8419 16.8032C13.6293 16.6457 14.2759 16.0859 14.5445 15.3291L13.1308 14.8275ZM3.42955 18.4128L7.76086 14.0815L6.7002 13.0209L2.36889 17.3522L3.42955 18.4128ZM15.7016 9.41146L11.3703 5.08015L10.3096 6.14081L14.6409 10.4721L15.7016 9.41146ZM11.3703 4.69704L13.175 2.89233L12.1143 1.83167L10.3096 3.63638L11.3703 4.69704ZM13.5581 2.89233L17.8894 7.22364L18.9501 6.16298L14.6188 1.83167L13.5581 2.89233ZM17.8894 7.60675L16.0847 9.41146L17.1454 10.4721L18.9501 8.66741L17.8894 7.60675ZM17.8894 7.22364C17.9952 7.32943 17.9952 7.50095 17.8894 7.60675L18.9501 8.66741C19.6416 7.97583 19.6416 6.85456 18.9501 6.16298L17.8894 7.22364ZM13.175 2.89233C13.2808 2.78654 13.4523 2.78654 13.5581 2.89233L14.6188 1.83167C13.9272 1.14009 12.8059 1.14009 12.1143 1.83167L13.175 2.89233ZM11.3703 5.08015C11.2645 4.97436 11.2645 4.80284 11.3703 4.69704L10.3096 3.63638C9.61804 4.32796 9.61804 5.44923 10.3096 6.14081L11.3703 5.08015ZM14.6409 10.4721C15.3325 11.1637 16.4538 11.1637 17.1454 10.4721L16.0847 9.41146C15.9789 9.51725 15.8074 9.51725 15.7016 9.41146L14.6409 10.4721ZM8.1218 10.8331C8.62628 10.3286 9.4442 10.3286 9.94867 10.8331L11.0093 9.7724C9.91907 8.68214 8.1514 8.68213 7.06114 9.7724L8.1218 10.8331ZM9.94867 10.8331C10.4532 11.3375 10.4532 12.1555 9.94867 12.6599L11.0093 13.7206C12.0996 12.6303 12.0996 10.8627 11.0093 9.7724L9.94867 10.8331ZM9.94867 12.6599C9.4442 13.1644 8.62628 13.1644 8.1218 12.6599L7.06114 13.7206C8.1514 14.8109 9.91907 14.8109 11.0093 13.7206L9.94867 12.6599ZM8.1218 12.6599C7.61732 12.1555 7.61732 11.3375 8.1218 10.8331L7.06114 9.7724C5.97087 10.8627 5.97087 12.6303 7.06114 13.7206L8.1218 12.6599Z" fill="black"/>
</svg>
