<svg width="32" height="32" viewBox="0 0 32 32" fill="none" xmlns="http://www.w3.org/2000/svg">
<path d="M25.9825 16.8857C26.2042 16.2611 25.8775 15.5751 25.2529 15.3535C24.6283 15.1318 23.9423 15.4585 23.7207 16.0831L25.9825 16.8857ZM22.1403 24.1252L23.2713 24.5265L23.2713 24.5265L22.1403 24.1252ZM20.3118 25.7084L20.5471 26.8851L20.5471 26.8851L20.3118 25.7084ZM4.3501 28.9008L3.16915 28.6878C3.09866 29.0787 3.22615 29.4791 3.50966 29.7573C3.79317 30.0355 4.19596 30.1554 4.58544 30.0775L4.3501 28.9008ZM7.26293 12.7478L8.44388 12.9608L8.44388 12.9608L7.26293 12.7478ZM8.94337 10.844L9.3013 11.9894L9.3013 11.9894L8.94337 10.844ZM17.1244 9.54464C17.757 9.34696 18.1096 8.67391 17.9119 8.04133C17.7142 7.40876 17.0411 7.05621 16.4086 7.25389L17.1244 9.54464ZM3.79032 27.7635C3.32169 28.2321 3.32169 28.9919 3.79032 29.4606C4.25895 29.9292 5.01875 29.9292 5.48738 29.4606L3.79032 27.7635ZM12.4175 22.5305C12.8861 22.0618 12.8861 21.302 12.4175 20.8334C11.9488 20.3648 11.189 20.3648 10.7204 20.8334L12.4175 22.5305ZM29.4717 10.7093L30.3202 9.86076L30.3202 9.86076L29.4717 10.7093ZM29.4717 13.0193L28.6231 12.1708L28.6231 12.1708L29.4717 13.0193ZM20.2315 3.7792L19.383 2.93068L19.383 2.93068L20.2315 3.7792ZM22.5416 3.7792L21.693 4.62773L21.693 4.62773L22.5416 3.7792ZM17.344 8.97677L18.1925 8.12824L17.344 8.97677ZM17.344 6.66674L18.1925 7.51527L18.1925 7.51527L17.344 6.66674ZM24.2741 15.9069L23.4256 16.7554L24.2741 15.9069ZM26.5841 15.9069L27.4327 16.7554L27.4327 16.7554L26.5841 15.9069ZM23.7207 16.0831L21.0094 23.7239L23.2713 24.5265L25.9825 16.8857L23.7207 16.0831ZM20.0764 24.5317L4.11476 27.7241L4.58544 30.0775L20.5471 26.8851L20.0764 24.5317ZM5.53105 29.1137L8.44388 12.9608L6.08198 12.5348L3.16915 28.6878L5.53105 29.1137ZM9.3013 11.9894L17.1244 9.54464L16.4086 7.25389L8.58544 9.69862L9.3013 11.9894ZM8.44388 12.9608C8.52651 12.5026 8.85691 12.1282 9.3013 11.9894L8.58544 9.69862C7.28792 10.1041 6.32322 11.197 6.08198 12.5348L8.44388 12.9608ZM21.0094 23.7239C20.8623 24.1386 20.5079 24.4454 20.0764 24.5317L20.5471 26.8851C21.807 26.6332 22.8416 25.7374 23.2713 24.5265L21.0094 23.7239ZM5.48738 29.4606L12.4175 22.5305L10.7204 20.8334L3.79032 27.7635L5.48738 29.4606ZM25.1226 15.0583L18.1925 8.12824L16.4955 9.8253L23.4256 16.7554L25.1226 15.0583ZM18.1925 7.51527L21.0801 4.62773L19.383 2.93068L16.4955 5.81821L18.1925 7.51527ZM21.693 4.62773L28.6231 11.5578L30.3202 9.86076L23.3901 2.93068L21.693 4.62773ZM28.6231 12.1708L25.7356 15.0583L27.4327 16.7554L30.3202 13.8678L28.6231 12.1708ZM28.6231 11.5578C28.7924 11.7271 28.7924 12.0015 28.6231 12.1708L30.3202 13.8678C31.4267 12.7613 31.4267 10.9673 30.3202 9.86076L28.6231 11.5578ZM21.0801 4.62773C21.2493 4.45846 21.5238 4.45846 21.693 4.62773L23.3901 2.93068C22.2836 1.82415 20.4895 1.82415 19.383 2.93068L21.0801 4.62773ZM18.1925 8.12824C18.0233 7.95897 18.0233 7.68454 18.1925 7.51527L16.4955 5.81821C15.389 6.92474 15.389 8.71877 16.4955 9.8253L18.1925 8.12824ZM23.4256 16.7554C24.5321 17.8619 26.3261 17.8619 27.4327 16.7554L25.7356 15.0583C25.5663 15.2276 25.2919 15.2276 25.1226 15.0583L23.4256 16.7554ZM12.995 17.3329C13.8021 16.5257 15.1108 16.5257 15.918 17.3329L17.615 15.6358C15.8706 13.8914 13.0423 13.8914 11.2979 15.6358L12.995 17.3329ZM15.918 17.3329C16.7251 18.1401 16.7251 19.4487 15.918 20.2559L17.615 21.953C19.3595 20.2085 19.3595 17.3803 17.615 15.6358L15.918 17.3329ZM15.918 20.2559C15.1108 21.0631 13.8021 21.0631 12.995 20.2559L11.2979 21.953C13.0423 23.6974 15.8706 23.6974 17.615 21.953L15.918 20.2559ZM12.995 20.2559C12.1878 19.4487 12.1878 18.1401 12.995 17.3329L11.2979 15.6358C9.55349 17.3803 9.5535 20.2085 11.2979 21.953L12.995 20.2559Z" fill="black"/>
</svg>
