<svg width="16" height="16" viewBox="0 0 16 16" fill="none" xmlns="http://www.w3.org/2000/svg">
<path d="M12.991 8.44283C13.1018 8.13054 12.9385 7.78754 12.6262 7.67673C12.3139 7.56591 11.9709 7.72924 11.8601 8.04154L12.991 8.44283ZM11.0699 12.0626L11.6354 12.2633V12.2633L11.0699 12.0626ZM10.1556 12.8542L10.2733 13.4426L10.1556 12.8542ZM2.1748 14.4504L1.58433 14.3439C1.54908 14.5394 1.61283 14.7396 1.75459 14.8787C1.89634 15.0177 2.09774 15.0777 2.29247 15.0387L2.1748 14.4504ZM3.63122 6.3739L4.2217 6.48038L3.63122 6.3739ZM4.47144 5.422L4.65041 5.99468H4.65041L4.47144 5.422ZM8.56197 4.77232C8.87826 4.67348 9.05454 4.33695 8.9557 4.02067C8.85686 3.70438 8.52033 3.5281 8.20404 3.62694L8.56197 4.77232ZM1.89492 13.8817C1.6606 14.1161 1.6606 14.496 1.89492 14.7303C2.12923 14.9646 2.50913 14.9646 2.74345 14.7303L1.89492 13.8817ZM6.20849 11.2652C6.4428 11.0309 6.4428 10.651 6.20849 10.4167C5.97418 10.1824 5.59428 10.1824 5.35996 10.4167L6.20849 11.2652ZM14.7356 5.35465L15.1599 4.93038H15.1599L14.7356 5.35465ZM14.7356 6.50966L14.3113 6.0854L14.7356 6.50966ZM10.1155 1.8896L9.69127 1.46534V1.46534L10.1155 1.8896ZM11.2705 1.8896L10.8463 2.31387L11.2705 1.8896ZM8.67176 4.48839L9.09603 4.06412L8.67176 4.48839ZM8.67176 3.33337L9.09603 3.75763V3.75763L8.67176 3.33337ZM12.1368 7.95343L11.7125 8.37769L12.1368 7.95343ZM13.2918 7.95343L13.7161 8.37769L13.2918 7.95343ZM11.8601 8.04154L10.5045 11.862L11.6354 12.2633L12.991 8.44283L11.8601 8.04154ZM10.038 12.2659L2.05713 13.862L2.29247 15.0387L10.2733 13.4426L10.038 12.2659ZM2.76528 14.5569L4.2217 6.48038L3.04074 6.26742L1.58433 14.3439L2.76528 14.5569ZM4.65041 5.99468L8.56197 4.77232L8.20404 3.62694L4.29248 4.84931L4.65041 5.99468ZM4.2217 6.48038C4.26301 6.25128 4.42821 6.06412 4.65041 5.99468L4.29248 4.84931C3.64372 5.05205 3.16137 5.59851 3.04074 6.26742L4.2217 6.48038ZM10.5045 11.862C10.4309 12.0693 10.2537 12.2227 10.038 12.2659L10.2733 13.4426C10.9032 13.3166 11.4206 12.8687 11.6354 12.2633L10.5045 11.862ZM2.74345 14.7303L6.20849 11.2652L5.35996 10.4167L1.89492 13.8817L2.74345 14.7303ZM12.5611 7.52917L9.09603 4.06412L8.2475 4.91265L11.7125 8.37769L12.5611 7.52917ZM9.09603 3.75763L10.5398 2.31387L9.69127 1.46534L8.2475 2.90911L9.09603 3.75763ZM10.8463 2.31387L14.3113 5.77891L15.1599 4.93038L11.6948 1.46534L10.8463 2.31387ZM14.3113 6.0854L12.8676 7.52917L13.7161 8.37769L15.1599 6.93392L14.3113 6.0854ZM14.3113 5.77891C14.396 5.86354 14.396 6.00076 14.3113 6.0854L15.1599 6.93392C15.7131 6.38066 15.7131 5.48365 15.1599 4.93038L14.3113 5.77891ZM10.5398 2.31387C10.6244 2.22923 10.7616 2.22923 10.8463 2.31387L11.6948 1.46534C11.1415 0.912075 10.2445 0.912075 9.69127 1.46534L10.5398 2.31387ZM9.09603 4.06412C9.01139 3.97949 9.01139 3.84227 9.09603 3.75763L8.2475 2.90911C7.69423 3.46237 7.69423 4.35939 8.2475 4.91265L9.09603 4.06412ZM11.7125 8.37769C12.2658 8.93096 13.1628 8.93096 13.7161 8.37769L12.8676 7.52917C12.7829 7.6138 12.6457 7.6138 12.5611 7.52917L11.7125 8.37769ZM6.49724 8.66645C6.90083 8.26287 7.55516 8.26287 7.95874 8.66645L8.80727 7.81792C7.93506 6.94571 6.52093 6.94571 5.64871 7.81792L6.49724 8.66645ZM7.95874 8.66645C8.36233 9.07003 8.36233 9.72437 7.95874 10.1279L8.80727 10.9765C9.67948 10.1043 9.67948 8.69013 8.80727 7.81792L7.95874 8.66645ZM7.95874 10.1279C7.55516 10.5315 6.90083 10.5315 6.49724 10.1279L5.64872 10.9765C6.52093 11.8487 7.93506 11.8487 8.80727 10.9765L7.95874 10.1279ZM6.49724 10.1279C6.09366 9.72437 6.09366 9.07003 6.49724 8.66645L5.64871 7.81792C4.7765 8.69013 4.7765 10.1043 5.64872 10.9765L6.49724 10.1279Z" fill="black"/>
</svg>
