<svg width="24" height="24" viewBox="0 0 24 24" fill="none" xmlns="http://www.w3.org/2000/svg">
    <path d="M10.6435 3.71356H5.2413C3.45118 3.71356 2 5.16474 2 6.95486V17.7593C2 19.5494 3.45118 21.0006 5.2413 21.0006H16.0456C17.8358 21.0006 19.2869 19.5494 19.2869 17.7593L19.2869 12.3571M7.40217 15.5983L11.3331 14.8063C11.5418 14.7642 11.7334 14.6615 11.8839 14.5109L20.6838 5.70622C21.1057 5.28409 21.1054 4.59982 20.6831 4.17804L18.819 2.31602C18.3969 1.89441 17.713 1.8947 17.2913 2.31666L8.49049 11.1222C8.3403 11.2725 8.23775 11.4637 8.19566 11.672L7.40217 15.5983Z" stroke="black" stroke-width="1.8" stroke-linecap="round" stroke-linejoin="round"/>
</svg>
